<?xml version="1.0" encoding="iso-8859-1"?>
<!-- Generator: Adobe Illustrator 19.0.0, SVG Export Plug-In . SVG Version: 6.00 Build 0)  -->
<svg version="1.1" id="Capa_1" xmlns="http://www.w3.org/2000/svg" xmlns:xlink="http://www.w3.org/1999/xlink" x="0px" y="0px"
	 viewBox="0 0 480.653 480.653" style="enable-background:new 0 0 480.653 480.653;" xml:space="preserve">
<g>
	<path style="fill:#4DCFE0;" d="M181.551,185.469h15.673v236.147h38.139l-5.224-110.237l20.898,5.224l-5.224,105.012h38.139
		l-5.224-241.371H294.4v109.714h42.841c5.747,0,10.449-4.702,10.449-10.449v-84.114c0-43.363-35.004-78.367-78.367-78.367h-57.469
		c-43.363,0-78.367,35.004-78.367,78.367v84.114c0,5.747,4.702,10.449,10.449,10.449h42.841L181.551,185.469z"/>
	<path style="fill:#4DCFE0;" d="M240.588,100.31c27.69,0,50.155-22.465,50.155-50.155S268.278,0,240.588,0
		c-27.69,0-50.155,22.465-50.155,50.155S212.898,100.31,240.588,100.31z"/>
</g>
<path style="fill:#D4E1F4;" d="M299.624,352.653v74.188c0,5.747-4.702,10.449-10.449,10.449h-48.588H192
	c-5.747,0-10.449-4.702-10.449-10.449v-74.71c-74.188,6.269-150.465,26.122-150.465,63.216c0,42.841,105.535,65.306,209.502,65.306
	c93.518,0,173.453-17.241,199.053-43.363c6.792-6.792,9.927-14.106,9.927-21.943C449.567,378.253,373.29,358.922,299.624,352.653z"
	/>
<path style="fill:#00BBD3;" d="M181.551,432.065c0,5.747,4.702,10.449,10.449,10.449h48.588h48.588
	c5.747,0,10.449-4.702,10.449-10.449v-79.412v-62.694V180.245h-20.898v241.371h-27.69V311.38h-20.898v110.237h-27.69V180.245
	h-20.898v109.714v62.171V432.065z"/>
<g>
</g>
<g>
</g>
<g>
</g>
<g>
</g>
<g>
</g>
<g>
</g>
<g>
</g>
<g>
</g>
<g>
</g>
<g>
</g>
<g>
</g>
<g>
</g>
<g>
</g>
<g>
</g>
<g>
</g>
</svg>
