<svg height="512pt" viewBox="-36 0 512 512.00084" width="512pt" xmlns="http://www.w3.org/2000/svg"><path d="m176.621094 489.28125h-11.128906c-9.9375 0-17.992188-8.054688-17.992188-17.992188v-54.5625h47.113281v54.5625c0 9.9375-8.054687 17.992188-17.992187 17.992188zm0 0" fill="#b4aaaa"/><path d="m177.65625 416.726562v54.5625c0 8.941407-6.527344 16.339844-15.078125 17.734376.953125.15625 1.921875.257812 2.914063.257812h11.128906c9.9375 0 17.992187-8.054688 17.992187-17.992188v-54.5625zm0 0" fill="#9b9696"/><path d="m184.171875 431.714844h-26.230469c-9.9375 0-17.992187-8.054688-17.992187-17.992188v-48.414062h62.214843v48.414062c0 9.9375-8.054687 17.992188-17.992187 17.992188zm0 0" fill="#b4aaaa"/><path d="m183.816406 365.308594v48.414062c0 9.9375-8.050781 17.992188-17.988281 17.992188h18.34375c9.9375 0 17.992187-8.054688 17.992187-17.992188v-48.414062zm0 0" fill="#9b9696"/><path d="m207.167969 504.515625h-70.871094v-16.183594c0-10.789062 8.746094-19.535156 19.535156-19.535156h31.800781c10.789063 0 19.535157 8.746094 19.535157 19.535156zm0 0" fill="#a0cafe"/><path d="m187.632812 468.796875h-23.230468c10.789062 0 19.535156 8.746094 19.535156 19.535156v16.183594h23.234375v-16.183594c-.003906-10.789062-8.75-19.535156-19.539063-19.535156zm0 0" fill="#81b8fd"/><path d="m272.269531 489.28125h-11.128906c-9.9375 0-17.992187-8.054688-17.992187-17.992188v-54.5625h47.113281v54.5625c0 9.9375-8.054688 17.992188-17.992188 17.992188zm0 0" fill="#b4aaaa"/><path d="m272.578125 416.726562v54.5625c0 8.816407-6.34375 16.136719-14.714844 17.679688 1.066407.195312 2.15625.3125 3.277344.3125h11.128906c9.9375 0 17.992188-8.054688 17.992188-17.992188v-54.5625zm0 0" fill="#9b9696"/><path d="m279.820312 431.714844h-26.230468c-9.9375 0-17.992188-8.054688-17.992188-17.992188v-48.414062h62.214844v48.414062c0 9.9375-8.054688 17.992188-17.992188 17.992188zm0 0" fill="#b4aaaa"/><path d="m280.128906 365.308594v48.414062c0 9.9375-8.054687 17.992188-17.988281 17.992188h17.679687c9.9375 0 17.992188-8.054688 17.992188-17.992188v-48.414062zm0 0" fill="#9b9696"/><path d="m302.816406 504.515625h-70.871094v-16.183594c0-10.789062 8.746094-19.535156 19.535157-19.535156h31.800781c10.789062 0 19.535156 8.746094 19.535156 19.535156zm0 0" fill="#a0cafe"/><path d="m283.28125 468.796875h-22.839844c10.789063 0 19.535156 8.746094 19.535156 19.535156v16.183594h22.839844v-16.183594c0-10.789062-8.746094-19.535156-19.535156-19.535156zm0 0" fill="#81b8fd"/><g fill="#a0cafe"><path d="m130.429688 108.945312h-24.148438c-8.703125 0-15.753906-7.050781-15.753906-15.753906v-30.707031c0-8.703125 7.050781-15.753906 15.753906-15.753906h24.148438zm0 0"/><path d="m308.6875 108.945312h24.148438c8.699218 0 15.753906-7.050781 15.753906-15.753906v-30.707031c0-8.703125-7.054688-15.753906-15.753906-15.753906h-24.148438zm0 0"/><path d="m173.871094 140.054688h91.375v40.652343h-91.375zm0 0"/></g><path d="m120.929688 56.25v47.902344c0 19.453125 13.304687 36.46875 32.238281 40.933594 44.261719 10.445312 88.519531 10.445312 132.78125 0 18.929687-4.464844 32.238281-21.480469 32.238281-40.933594v-47.902344c0-19.453125-13.308594-36.46875-32.238281-40.933594-44.261719-10.445312-88.519531-10.445312-132.78125 0-18.933594 4.464844-32.238281 21.480469-32.238281 40.933594zm0 0" fill="#3567c3"/><path d="m285.949219 15.316406c-28.089844-6.628906-56.175781-9.042968-84.261719-7.257812 16.171875 1.027344 32.347656 3.441406 48.519531 7.257812 18.933594 4.464844 32.238281 21.480469 32.238281 40.933594v47.902344c0 19.453125-13.304687 36.46875-32.238281 40.933594-16.171875 3.816406-32.347656 6.230468-48.519531 7.257812 28.085938 1.785156 56.171875-.628906 84.261719-7.257812 18.929687-4.464844 32.238281-21.480469 32.238281-40.933594v-47.902344c0-19.453125-13.308594-36.46875-32.238281-40.933594zm0 0" fill="#2d56a1"/><path d="m298.578125 77.835938c0-17.179688-35.378906-31.105469-79.019531-31.105469s-79.019532 13.925781-79.019532 31.105469c0 17.183593 35.378907 31.109374 79.019532 31.109374s79.019531-13.925781 79.019531-31.109374zm0 0" fill="#a0cafe"/><path d="m219.558594 46.730469c-5.039063 0-9.957032.191406-14.734375.546875 36.597656 2.71875 64.285156 15.363281 64.285156 30.558594 0 15.199218-27.6875 27.84375-64.285156 30.5625 4.777343.355468 9.695312.546874 14.734375.546874 43.640625 0 79.019531-13.929687 79.019531-31.109374 0-17.179688-35.378906-31.105469-79.019531-31.105469zm0 0" fill="#81b8fd"/><path d="m291.394531 371.808594c-47.890625 8.894531-95.78125 8.894531-143.671875 0-21.683594-4.027344-37.246094-22.105469-37.246094-42.972656v-129.507813c0-10.285156 8.828126-18.621094 19.71875-18.621094h178.722657c10.890625 0 19.71875 8.339844 19.71875 18.621094v129.507813c0 20.867187-15.558594 38.945312-37.242188 42.972656zm0 0" fill="#3567c3"/><path d="m308.917969 180.707031h-35.738281c10.890624 0 19.71875 8.339844 19.71875 18.621094v129.507813c0 20.867187-15.558594 38.945312-37.242188 42.972656-17.988281 3.339844-35.976562 5.425781-53.96875 6.257812 29.902344 1.378906 59.804688-.703125 89.707031-6.257812 21.683594-4.027344 37.246094-22.105469 37.246094-42.972656v-129.507813c-.003906-10.28125-8.832031-18.621094-19.722656-18.621094zm0 0" fill="#2d56a1"/><path d="m16.804688 315.585938c-.835938 11 7.132812 20.90625 18.097656 22.128906.792968.085937 1.574218.132812 2.351562.132812 10.625-.003906 19.613282-8.199218 20.421875-18.96875.925781-12.332031 3.078125-23.277344 6.421875-32.808594 1.582032-4.519531-.46875-9.496093-4.785156-11.574218l-20.167969-9.695313c-5.007812-2.410156-10.96875.042969-12.898437 5.253907-4.667969 12.609374-8.078125 27.632812-9.441406 45.53125zm0 0" fill="#b4aaaa"/><path d="m101.335938 245.832031c-.242188.050781-.371094.070313-.371094.070313l-7.273438-40.351563c-2.023437.363281-36.53125 7.144531-58.824218 45.976563-2.722657 4.742187-.867188 10.800781 4.0625 13.167968l20.164062 9.695313c4.402344 2.117187 9.636719.46875 12.164062-3.710937 2.980469-4.929688 6.425782-9.28125 10.335938-13.039063 9.960938-9.566406 19.347656-11.722656 19.742188-11.808594zm0 0" fill="#b4aaaa"/><path d="m76.71875 344.394531-11.613281-15.453125c-4.664063-6.207031-11.261719-10.796875-18.808594-12.621094-6.546875-1.585937-13.066406-1.824218-19.558594-.914062-11.023437 1.542969-19.234375 10.960938-19.234375 22.089844v9.746094c0 14.320312 11.609375 25.933593 25.933594 25.933593 8.613281 0 16.242188-4.203125 20.957031-10.667969 4.929688 5.71875 13.511719 6.691407 19.597657 2.054688 6.324218-4.816406 7.542968-13.847656 2.726562-20.167969zm0 0" fill="#a0cafe"/><path d="m110.476562 250.035156h-7.835937c-10.195313 0-18.460937-8.265625-18.460937-18.460937v-15.695313c0-10.195312 8.265624-18.460937 18.460937-18.460937h7.835937zm0 0" fill="#464646"/><path d="m422.3125 315.585938c.835938 11-7.136719 20.90625-18.097656 22.128906-.792969.085937-1.574219.132812-2.351563.132812-10.625-.003906-19.613281-8.199218-20.421875-18.96875-.925781-12.332031-3.078125-23.277344-6.421875-32.808594-1.582031-4.519531.46875-9.496093 4.785157-11.574218l20.167968-9.695313c5.007813-2.410156 10.96875.042969 12.898438 5.253907 4.667968 12.609374 8.078125 27.632812 9.441406 45.53125zm0 0" fill="#b4aaaa"/><path d="m337.78125 245.832031c.242188.050781.367188.070313.367188.070313l7.277343-40.351563c2.023438.363281 36.53125 7.144531 58.824219 45.976563 2.722656 4.742187.867188 10.800781-4.0625 13.167968l-20.164062 9.695313c-4.402344 2.117187-9.636719.46875-12.164063-3.710937-2.980469-4.929688-6.425781-9.28125-10.335937-13.039063-9.960938-9.566406-19.347657-11.722656-19.742188-11.808594zm0 0" fill="#b4aaaa"/><path d="m362.398438 344.394531 11.609374-15.453125c4.667969-6.207031 11.265626-10.796875 18.8125-12.621094 6.546876-1.585937 13.066407-1.824218 19.558594-.914062 11.023438 1.542969 19.234375 10.960938 19.234375 22.089844v9.746094c0 14.320312-11.609375 25.933593-25.933593 25.933593-8.613282 0-16.242188-4.203125-20.957032-10.667969-4.929687 5.71875-13.511718 6.691407-19.597656 2.054688-6.324219-4.816406-7.542969-13.847656-2.726562-20.167969zm0 0" fill="#a0cafe"/><path d="m328.636719 250.035156h7.835937c10.195313 0 18.460938-8.265625 18.460938-18.460937v-15.695313c0-10.195312-8.265625-18.460937-18.460938-18.460937h-7.835937zm0 0" fill="#464646"/><path d="m160.464844 205.550781h118.1875v34.882813h-118.1875zm0 0" fill="#e04955"/><path d="m200.625 280.675781c0 9.28125-7.523438 16.808594-16.808594 16.808594-9.28125 0-16.804687-7.527344-16.804687-16.808594s7.523437-16.804687 16.804687-16.804687c9.285156 0 16.808594 7.523437 16.808594 16.804687zm0 0" fill="#54a770"/><path d="m272.105469 280.675781c0 9.28125-7.523438 16.808594-16.808594 16.808594-9.28125 0-16.804687-7.527344-16.804687-16.808594s7.523437-16.804687 16.804687-16.804687c9.285156 0 16.808594 7.523437 16.808594 16.804687zm0 0" fill="#54a770"/><path d="m219.558594 39.210938c-22.023438 0-42.84375 3.421874-58.621094 9.632812-17.992188 7.082031-27.898438 17.371094-27.898438 28.976562 0 11.601563 9.90625 21.894532 27.898438 28.976563 15.777344 6.210937 36.597656 9.632813 58.621094 9.632813 22.023437 0 42.84375-3.421876 58.621094-9.632813 17.988281-7.085937 27.898437-17.375 27.898437-28.976563 0-11.605468-9.910156-21.894531-27.898437-28.976562-15.777344-6.210938-36.597657-9.632812-58.621094-9.632812zm71.515625 38.609374c0 9.625-27.859375 23.609376-71.515625 23.609376-43.660156 0-71.519532-13.984376-71.519532-23.609376s27.863282-23.609374 71.519532-23.609374c43.660156 0 71.515625 13.984374 71.515625 23.609374zm0 0"/><path d="m180.113281 67.835938c-4.140625 0-7.5 3.359374-7.5 7.503906v4.960937c0 4.144531 3.359375 7.503907 7.5 7.503907s7.5-3.359376 7.5-7.503907v-4.960937c0-4.144532-3.359375-7.503906-7.5-7.503906zm0 0"/><path d="m259.003906 87.804688c4.140625 0 7.5-3.359376 7.5-7.503907v-4.960937c0-4.144532-3.359375-7.503906-7.5-7.503906s-7.5 3.359374-7.5 7.503906v4.960937c0 4.144531 3.359375 7.503907 7.5 7.503907zm0 0"/><path d="m429.84375 315.941406c-.011719-.3125-.03125-.628906-.054688-.941406-1.328124-17.429688-4.652343-33.429688-9.886718-47.566406-1.335938-3.609375-3.859375-6.644532-7.101563-8.617188.582031-3.777344-.125-7.695312-2.046875-11.042968-16.414062-28.589844-39.050781-41.066407-52.652344-46.261719-8.921874-13.398438-23.066406-11.4375-23.789062-11.613281-3.945312-9.765626-13.839844-16.710938-25.394531-16.710938h-36.171875v-17.691406c4.980468-.914063 9.957031-1.957032 14.921875-3.128906 18.289062-4.316407 32.070312-18.34375 36.5-35.941407h8.664062c12.824219 0 23.257813-10.429687 23.257813-23.253906v-30.703125c0-12.824219-10.433594-23.257812-23.257813-23.257812h-10.125c-3.042969-8.378907-8.332031-15.863282-15.480469-21.628907-3.222656-2.601562-7.945312-2.097656-10.546874 1.125-2.601563 3.222657-2.097657 7.945313 1.125 10.550781 6.03125 4.867188 10.167968 11.484376 11.925781 18.847657.019531.097656.039062.199219.0625.296875 1.550781 6.703125.621093 7.398437.890625 55.734375 0 16.128906-10.882813 29.957031-26.460938 33.632812-42.910156 10.125-86.421875 10.125-129.332031 0-15.574219-3.675781-26.460937-17.503906-26.460937-33.632812 0-24.265625-.019532-46.957031.003906-48.4375.246094-15.675781 10.84375-29.417969 26.457031-33.101563 40.699219-9.601562 81.976563-10.101562 122.691406-1.480468 4.054688.859374 8.035157-1.730469 8.890625-5.785157.859375-4.050781-1.730468-8.03125-5.78125-8.890625-42.894531-9.082031-86.378906-8.558594-129.246094 1.554688-16.617187 3.921875-29.515624 15.863281-35.058593 31.214844h-10.105469c-12.824219 0-23.257812 10.433593-23.257812 23.253906v30.707031c0 12.824219 10.433593 23.257813 23.257812 23.257813h8.664062c4.429688 17.59375 18.210938 31.625 36.5 35.9375 4.96875 1.171874 9.941407 2.214843 14.921876 3.128906v17.691406h-36.171876c-11.554687 0-21.449218 6.945312-25.390624 16.710938h-2.164063c-9.015625 0-16.972656 4.621093-21.628906 11.617187-13.601563 5.191406-36.238281 17.671875-52.652344 46.257813-1.921875 3.351562-2.628906 7.265624-2.046875 11.042968-3.242188 1.972656-5.765625 5.007813-7.101562 8.617188-5.820313 15.71875-9.421876 35.582031-9.941407 48.511718-5.730469 5.476563-9.269531 13.171876-9.269531 21.535157v9.742187c0 18.4375 15 33.4375 33.433594 33.4375 8.054687 0 15.800781-2.949218 21.816406-8.113281 7.296875 3.753906 16.394531 3.214844 23.285156-2.035156 9.597656-7.308594 11.460938-21.058594 4.164063-30.65625-10.769531-13.988281-12.234375-17.160157-17.4375-21.769531 2.238281-26.796876 8.039062-28.964844 6.667969-37.75 6.457031-3.945313 5.753906-8.554688 14.859374-17.304688 2.703126-2.59375 5.578126-4.789062 8.585938-6.546875 4.074219 1.191406 7.335938 1.015625 7.601562 1.035156v30.699219c0 4.140625 3.355469 7.5 7.5 7.5 4.140626 0 7.5-3.359375 7.5-7.5v-88.90625c0-6.132812 5.480469-11.121094 12.21875-11.121094h178.722657c6.738281 0 12.21875 4.988282 12.21875 11.121094v129.503906c0 17.484375-13.300781 32.292969-31.113281 35.601563-47.816407 7.847656-87.441407 9.933593-140.933594 0-19.683594-4.050781-31.113282-19.546875-31.113282-35.601563v-15.351562c0-4.140625-3.359374-7.5-7.503906-7.5-4.140625 0-7.5 3.359375-7.5 7.5v15.351562c0 19.703125 11.789063 37.25 29.472656 45.800782v39.085937c0 7.066406 2.894532 13.472656 7.554688 18.09375v34.613281c-6.785156 4.917969-11.203125 12.902344-11.203125 21.902344v16.1875c0 4.144531 3.355469 7.5 7.5 7.5h70.871094c4.140625 0 7.5-3.355469 7.5-7.5v-16.1875c0-9.585938-5.015625-18.019531-12.554688-22.820312v-33.695313c4.660157-4.621094 7.550781-11.027344 7.550781-18.09375v-27.894531c5.941407.148437 12.039063.167968 18.429688.03125v27.863281c0 7.066406 2.894531 13.472656 7.554688 18.09375v34.613281c-6.785157 4.917969-11.203126 12.902344-11.203126 21.902344v16.1875c0 4.144531 3.355469 7.5 7.5 7.5h70.871094c4.140625 0 7.5-3.355469 7.5-7.5v-16.1875c0-9.585938-5.011718-18.019531-12.554687-22.820312v-33.695313c4.660156-4.621094 7.550781-11.027344 7.550781-18.09375v-38.457031c18.429688-8.292969 30.824219-26.230469 30.824219-46.429688v-71.296875h.335937c2.523438 0 4.960938-.363281 7.265625-1.035156 3.007813 1.757813 5.882813 3.953125 8.585938 6.546875 3.410156 3.277344 6.476562 7.148438 9.113281 11.511719 1.480469 2.449219 3.464844 4.398437 5.746094 5.789062-.417969 2.675781-.199219 5.484375.753906 8.203125 3.003906 8.558594 4.992188 18.492188 5.914062 29.546875-5.203124 4.609375-6.78125 7.925781-17.4375 21.769531-7.296874 9.601563-5.433593 23.347657 4.160157 30.660157 6.890625 5.25 15.992187 5.785156 23.289062 2.03125 6.011719 5.167969 13.761719 8.113281 21.8125 8.113281 18.4375 0 33.433594-15 33.433594-33.433594v-9.742187c.003906-8.363281-3.535156-16.0625-9.265625-21.539063zm-97.007812-261.730468c4.550781 0 8.253906 3.703124 8.253906 8.257812v30.703125c0 4.554687-3.703125 8.257813-8.253906 8.257813h-7.148438c0-49.851563.023438-45.621094-.042969-47.21875zm-234.808594 38.960937v-30.703125c0-4.554688 3.703125-8.257812 8.253906-8.257812h7.1875c-.082031 2.054687-.019531-.363282-.039062 47.21875h-7.148438c-4.550781 0-8.253906-3.703126-8.253906-8.257813zm-27.304688 255.710937c.011719.011719.019532.027344.03125.039063 2.300782 3.023437 1.714844 7.355469-1.304687 9.65625-2.886719 2.195313-7.003907 1.765625-9.375-.984375-3.171875-3.679688-8.910157-3.398438-11.738281.476562-3.464844 4.75-9.035157 7.585938-14.898438 7.585938-10.164062 0-18.433594-8.269531-18.433594-18.433594.679688-5.101562-2.605468-15.53125 6.226563-21.78125 6.269531-4.472656 21.414062-4.761718 31.96875 2.175782 5.4375 3.914062 6.738281 7.40625 17.523437 21.265624zm-45.65625-40.828124c1.523438-12.894532 4.273438-24.773438 8.214844-35.414063.390625-1.066406 1.585938-1.59375 2.609375-1.101563 23.089844 11.101563 19.632813 9.441407 20.171875 9.699219.863281.417969 1.273438 1.417969.957031 2.332031-2.765625 7.882813-4.769531 16.695313-5.980469 26.289063-7.917968-2.601563-18.074218-3.09375-25.972656-1.804687zm51.332032-55.84375c-11.308594 10.867187-10.933594 16.910156-14.054688 15.402343-21.496094-10.335937-20.765625-9.617187-21.144531-10.832031-.09375-.300781-.195313-.902344.171875-1.539062 10.691406-18.621094 24.3125-29.253907 35.308594-35.242188.011718 10.804688-1.269532 18.730469 5.386718 27.367188-1.957031 1.480468-3.847656 3.097656-5.667968 4.84375zm26.242187-9.695313c-6.085937 0-10.957031-5.019531-10.957031-10.957031 0-20.796875.152344-16.109375.042968-16.65625.484376-5.476563 5.089844-10.003906 10.917969-10.003906h.332031v37.617187zm78.730469-69.328125v-15.3125c25.378906 3.34375 50.996094 3.34375 76.375 0v15.3125zm18.296875 323.8125h-55.867188v-8.6875c0-6.648438 5.417969-12.035156 12.03125-12.035156.207031 0 31.917969 0 31.808594 0 6.554687.007812 12.03125 5.328125 12.03125 12.035156v8.6875zm-12.554688-57.972656v22.25c-33.117187.007812-31.25-.015625-32.113281.011718v-22.261718zm7.550781-53.855469v28.53125c0 5.863281-4.808593 10.492187-10.492187 10.492187-29.941406-.039062-28.027344.839844-32.5625-2.132812-2.523437-1.917969-4.160156-4.949219-4.160156-8.359375v-34.335937c15.394531 2.816406 31.285156 4.796874 47.214843 5.804687zm95.648438-5.558594v34.089844c0 5.859375-4.808594 10.492187-10.492188 10.492187-30.097656-.011718-28.082031.804688-32.5625-2.132812-2.523437-1.917969-4.160156-4.949219-4.160156-8.359375v-28.460937c15.664063-.933594 31.542969-2.816407 47.214844-5.628907zm5.003906 117.386719h-55.871094v-8.6875c0-6.648438 5.417969-12.035156 12.035157-12.035156.175781 0 31.917969 0 31.808593 0 6.558594.007812 12.027344 5.332031 12.027344 12.035156zm-12.554687-57.972656v22.25c-33.117188.007812-31.25-.015625-32.113281.011718v-22.261718zm53.378906-196.511719v-37.617187h.332031c6.140625 0 10.960938 5.023437 10.960938 10.960937 0 27.589844.253906 9.867187-.011719 16.171875-.257813 5.828125-5.125 10.484375-10.949219 10.484375zm20.910156 4.855469c6.535157-8.484375 5.382813-15.9375 5.386719-27.371094 10.996094 5.988281 24.617188 16.625 35.308594 35.242188.542968.949218.207031 2.1875-.808594 2.675781-.101562.046875-.316406.152343-.214844.105469-23.386718 11.242187-18.683594 8.980468-19.949218 9.589843-3.652344 1.765625-3.507813-7.976562-19.722657-20.242187zm31.023438 62.488281c-1.210938-9.59375-3.210938-18.40625-5.976563-26.289063-.320312-.914062.089844-1.914062.953125-2.332031 21.4375-10.222656 20.519531-10.210937 21.679688-9.746093.296875.121093.839843.429687 1.105469 1.148437 3.9375 10.636719 6.691406 22.519531 8.210937 35.414063-8.796875-1.433594-18.78125-.554688-25.972656 1.804687zm36.039062 37.363281c0 10.164063-8.269531 18.433594-18.433593 18.433594-5.863282 0-11.429688-2.835938-14.898438-7.585938-2.84375-3.894531-8.582031-4.136718-11.738281-.476562-2.371094 2.75-6.488281 3.183594-9.375.984375-3.019531-2.300781-3.605469-6.632813-1.304688-9.65625.011719-.011719.019531-.027344.03125-.039063l11.609375-15.453124c7.320313-9.738282 18.851563-12.234376 30.820313-10.683594 8.1875 1.066406 13.289062 7.683594 13.289062 14.734375zm0 0"/><path d="m286.152344 240.414062v-34.882812c0-4.140625-3.355469-7.5-7.5-7.5h-118.191406c-4.140626 0-7.5 3.359375-7.5 7.5v34.882812c0 4.140626 3.359374 7.5 7.5 7.5h118.191406c4.144531 0 7.5-3.359374 7.5-7.5zm-15-7.5h-103.1875v-19.882812h103.1875zm0 0"/><path d="m183.816406 256.351562c-13.402344 0-24.304687 10.902344-24.304687 24.308594 0 13.402344 10.902343 24.304688 24.304687 24.304688 13.40625 0 24.308594-10.902344 24.308594-24.304688 0-13.40625-10.902344-24.308594-24.308594-24.308594zm0 33.613282c-5.128906 0-9.304687-4.175782-9.304687-9.304688 0-5.132812 4.175781-9.308594 9.304687-9.308594 5.132813 0 9.308594 4.175782 9.308594 9.308594 0 5.128906-4.175781 9.304688-9.308594 9.304688zm0 0"/><path d="m279.605469 280.660156c0-13.40625-10.902344-24.308594-24.308594-24.308594-13.402344 0-24.304687 10.902344-24.304687 24.308594 0 13.402344 10.902343 24.304688 24.304687 24.304688 13.40625 0 24.308594-10.902344 24.308594-24.304688zm-24.308594 9.304688c-5.128906 0-9.304687-4.175782-9.304687-9.304688 0-5.132812 4.175781-9.308594 9.304687-9.308594 5.132813 0 9.308594 4.175782 9.308594 9.308594 0 5.128906-4.175781 9.304688-9.308594 9.304688zm0 0"/><path d="m198.8125 322.035156c0 4.144532 3.359375 7.5 7.503906 7.5h26.484375c4.144531 0 7.5-3.355468 7.5-7.5 0-4.140625-3.355469-7.5-7.5-7.5h-26.484375c-4.144531 0-7.503906 3.359375-7.503906 7.5zm0 0"/><path d="m190.09375 356.714844h58.929688c4.140624 0 7.5-3.355469 7.5-7.5 0-4.140625-3.359376-7.5-7.5-7.5h-58.929688c-4.144531 0-7.5 3.359375-7.5 7.5 0 4.144531 3.355469 7.5 7.5 7.5zm0 0"/></svg>